<svg width="778" height="199" viewBox="0 0 778 199" fill="none" xmlns="http://www.w3.org/2000/svg">
<path d="M261.652 64.375L264.678 37H282.231V64.375H301.297V83.3854H282.231V112.89C282.231 123.637 286.821 129.01 296.001 129.01C298.12 129.01 300.036 128.656 301.751 127.946L307.047 146.956C303.214 148.68 298.473 149.542 292.823 149.542C283.442 149.542 275.775 146.652 269.823 140.873C263.871 135.094 260.895 125.817 260.895 113.042V83.3854H250V64.375H261.652Z" fill="black"/>
<path d="M327.604 75.6292C335.271 67.2139 344.552 63.0063 355.447 63.0063C361.097 63.0063 366.292 64.4257 371.033 67.2646C375.775 70.1035 379.406 73.7535 381.928 78.2146L383.29 64.375H402.659V148.021H383.29L381.928 134.029C379.406 138.49 375.775 142.14 371.033 144.979C366.292 147.818 361.097 149.238 355.447 149.238C344.552 149.238 335.271 145.03 327.604 136.615C319.938 128.098 316.104 117.908 316.104 106.046C316.104 94.1833 319.938 84.0444 327.604 75.6292ZM343.947 121.558C348.184 125.918 353.329 128.098 359.382 128.098C365.535 128.098 370.731 125.969 374.967 121.71C379.204 117.351 381.323 112.129 381.323 106.046C381.323 99.9625 379.204 94.7917 374.967 90.5333C370.731 86.1736 365.535 83.9938 359.382 83.9938C353.329 83.9938 348.184 86.1736 343.947 90.5333C339.71 94.7917 337.592 99.9625 337.592 106.046C337.592 112.129 339.71 117.3 343.947 121.558Z" fill="black"/>
<path d="M420.38 64.375H439.749L441.262 76.3896C446.205 67.9743 454.427 63.7667 465.927 63.7667C468.853 63.7667 471.375 63.9694 473.493 64.375L469.105 84.9063C467.894 84.7035 467.037 84.6021 466.532 84.6021C459.471 84.6021 453.569 86.7819 448.828 91.1417C444.087 95.4 441.716 102.649 441.716 112.89V148.021H420.38V64.375Z" fill="black"/>
<path d="M485.548 148.021V64.375H504.917L506.279 76.0854C508.397 72.0299 511.373 68.8361 515.206 66.5042C519.141 64.1722 523.327 63.0063 527.766 63.0063C533.314 63.0063 538.157 64.3243 542.293 66.9604C546.429 69.5965 549.556 73.1958 551.674 77.7583C553.793 73.3986 556.819 69.85 560.754 67.1125C564.789 64.375 569.278 63.0063 574.221 63.0063C584.006 63.0063 591.724 66.3521 597.373 73.0438C603.022 79.7354 605.847 90.1278 605.847 104.221V148.021H584.511V104.221C584.511 97.225 583.149 92.1049 580.425 88.8604C577.802 85.616 574.473 83.9938 570.438 83.9938C566.504 83.9938 563.124 85.616 560.3 88.8604C557.576 92.1049 556.214 97.225 556.214 104.221V148.021H535.029V104.221C535.029 97.225 533.718 92.1049 531.095 88.8604C528.472 85.616 525.093 83.9938 520.957 83.9938C516.921 83.9938 513.542 85.8187 510.818 89.4688C508.195 93.0174 506.884 98.2896 506.884 105.285V148.021H485.548Z" fill="black"/>
<path d="M614.668 179.958L620.57 161.1C623.899 162.215 627.026 162.773 629.952 162.773C638.022 162.773 643.974 156.943 647.807 145.283L615.728 64.375H638.577L657.34 116.083L675.499 64.375H698.045L668.841 148.021C664.503 160.492 659.257 169.414 653.103 174.788C647.051 180.263 639.636 183 630.859 183C625.008 183 619.611 181.986 614.668 179.958Z" fill="black"/>
<path d="M705.972 83.3854V64.375H775.882V80.4958L737.144 128.098H778V148.021H705.972V132.813L746.677 83.3854H705.972Z" fill="black"/>
<path d="M0 37.649C0 16.856 16.856 0 37.649 0H161.353C182.146 0 199.002 16.856 199.002 37.649V161.353C199.002 182.146 182.146 199.002 161.353 199.002H37.649C16.856 199.002 0 182.146 0 161.353V37.649Z" fill="#0EB6FE"/>
<ellipse cx="140.864" cy="51.6531" rx="19.7951" ry="18.6531" fill="white"/>
<ellipse cx="140.864" cy="96.2669" rx="19.7951" ry="18.6531" fill="white"/>
<path fill-rule="evenodd" clip-rule="evenodd" d="M40 33H110.564V64.3616V167.594H80.5098V69.5892C80.5098 65.2591 76.9996 61.7488 72.6694 61.7488H40V33Z" fill="white"/>
</svg>