<svg width="800" height="800" viewBox="0 0 800 800" fill="none" xmlns="http://www.w3.org/2000/svg">
<path d="M0 150C0 67.1573 67.1573 0 150 0H650C732.843 0 800 67.1573 800 150V650C800 732.843 732.843 800 650 800H150C67.1573 800 0 732.843 0 650V150Z" fill="#26A17B"/>
<path d="M400 725C579.493 725 725 579.493 725 400C725 220.507 579.493 75 400 75C220.507 75 75 220.507 75 400C75 579.493 220.507 725 400 725Z" fill="#26A17B"/>
<path fill-rule="evenodd" clip-rule="evenodd" d="M450.891 437.741V437.698C448.545 437.869 436.451 438.593 409.469 438.593C387.926 438.593 372.761 437.954 367.429 437.698V437.762C284.5 434.12 222.602 419.697 222.602 402.442C222.602 385.208 284.5 370.786 367.429 367.079V423.404C372.847 423.788 388.374 424.704 409.832 424.704C435.577 424.704 448.481 423.638 450.891 423.425V367.122C533.649 370.807 595.398 385.229 595.398 402.442C595.398 419.697 533.649 434.077 450.891 437.741ZM450.891 361.264V310.861H566.369V234H251.951V310.861H367.429V361.242C273.579 365.545 203 384.122 203 406.362C203 428.602 273.579 447.157 367.429 451.481V613H450.891V451.439C544.591 447.136 615 428.581 615 406.362C615 384.143 544.591 365.588 450.891 361.264Z" fill="white"/>
</svg>
