<svg width="800" height="800" viewBox="0 0 800 800" fill="none" xmlns="http://www.w3.org/2000/svg">
<path d="M0 150C0 67.1573 67.1573 0 150 0H650C732.843 0 800 67.1573 800 150V650C800 732.843 732.843 800 650 800H150C67.1573 800 0 732.843 0 650V150Z" fill="#2B364A"/>
<path d="M435.245 436.737L411.893 500.41C411.166 502.208 411.166 504.217 411.893 506.015L451.934 615.676L498.513 588.992L442.718 436.737C442.422 435.987 441.907 435.344 441.241 434.89C440.575 434.437 439.787 434.195 438.981 434.195C438.175 434.195 437.388 434.437 436.722 434.89C436.055 435.344 435.541 435.987 435.245 436.737ZM481.949 329.474C481.666 328.711 481.156 328.053 480.488 327.589C479.82 327.124 479.026 326.875 478.213 326.875C477.399 326.875 476.605 327.124 475.937 327.589C475.269 328.053 474.759 328.711 474.476 329.474L451.124 393.116C450.397 394.913 450.397 396.923 451.124 398.72L516.915 578.313L563.37 551.629L481.949 329.318V329.474Z" fill="#12AAFF"/>
<path d="M399.5 186.808C400.683 186.808 401.793 187.119 402.831 187.742L582.984 292.484C584.004 293.058 584.851 293.895 585.437 294.908C586.024 295.922 586.327 297.073 586.316 298.244V501.998C586.321 503.163 586.015 504.309 585.43 505.316C584.844 506.323 584 507.156 582.984 507.727L402.831 612.873C401.812 613.44 400.666 613.738 399.5 613.738C398.334 613.738 397.187 613.44 396.168 612.873L216.015 507.914C214.99 507.337 214.14 506.495 213.554 505.476C212.967 504.457 212.667 503.298 212.684 502.123V298.244C212.684 295.815 214.022 293.698 216.015 292.484L396.168 187.742C397.155 187.078 398.311 186.711 399.5 186.684V186.808ZM399.5 160C393.086 160.044 386.792 161.738 381.223 164.919L204.277 266.734C198.733 269.92 194.125 274.51 190.917 280.041C187.709 285.572 186.013 291.85 186 298.244V501.998C186 514.951 192.912 527.094 204.277 533.632L381.223 635.447C386.775 638.667 393.081 640.364 399.5 640.364C405.919 640.364 412.224 638.667 417.776 635.447L594.722 533.632C600.306 530.46 604.943 525.857 608.156 520.296C611.368 514.736 613.04 508.42 612.999 501.998V298.244C612.999 285.291 606.056 273.148 594.722 266.734L417.776 164.919C412.207 161.738 405.913 160.044 399.5 160Z" fill="#9DCCED"/>
<path d="M282.457 578.593L298.741 534.162L331.434 561.25L300.89 589.273L282.457 578.593Z" fill="#213147"/>
<path d="M384.679 280.092H339.719C338.066 280.128 336.463 280.67 335.128 281.644C333.792 282.618 332.786 283.978 332.246 285.541L236.16 551.504L282.459 578.593L388.415 285.696C388.751 284.751 388.738 283.717 388.379 282.78C388.019 281.844 387.336 281.067 386.454 280.59C385.871 280.271 385.219 280.099 384.554 280.092H384.679ZM463.142 280.092H418.306C416.668 280.119 415.077 280.642 413.742 281.593C412.408 282.544 411.394 283.877 410.833 285.416L300.892 588.868L347.316 615.956L466.878 285.572C467.23 284.652 467.234 283.635 466.89 282.713C466.546 281.79 465.878 281.024 465.01 280.559C464.434 280.255 463.793 280.095 463.142 280.092Z" fill="white"/>
</svg>
