<svg width="800" height="800" viewBox="0 0 800 800" fill="none" xmlns="http://www.w3.org/2000/svg">
<path d="M0 150C0 67.1573 67.1573 0 150 0H650C732.843 0 800 67.1573 800 150V650C800 732.843 732.843 800 650 800H150C67.1573 800 0 732.843 0 650V150Z" fill="#627EEA"/>
<path d="M400 725C579.493 725 725 579.493 725 400C725 220.507 579.493 75 400 75C220.507 75 75 220.507 75 400C75 579.493 220.507 725 400 725Z" fill="#627EEA"/>
<path d="M410.117 156.25V336.422L562.4 404.469L410.117 156.25Z" fill="white" fill-opacity="0.602"/>
<path d="M410.116 156.25L257.812 404.469L410.116 336.422V156.25Z" fill="white"/>
<path d="M410.117 521.23V643.654L562.502 432.83L410.117 521.23Z" fill="white" fill-opacity="0.602"/>
<path d="M410.116 643.654V521.21L257.812 432.83L410.116 643.654Z" fill="white"/>
<path d="M410.117 492.891L562.4 404.471L410.117 336.465V492.891Z" fill="white" fill-opacity="0.2"/>
<path d="M257.812 404.471L410.116 492.891V336.465L257.812 404.471Z" fill="white" fill-opacity="0.602"/>
</svg>
