<svg width="800" height="800" viewBox="0 0 800 800" fill="none" xmlns="http://www.w3.org/2000/svg">
<path d="M0 150C0 67.1573 67.1573 0 150 0H650C732.843 0 800 67.1573 800 150V650C800 732.843 732.843 800 650 800H150C67.1573 800 0 732.843 0 650V150Z" fill="#8247E5"/>
<path d="M399.872 75C579.447 75 725 220.524 725 400.064C725 579.604 579.447 725 400 725C220.425 725 75.0001 579.476 75.0001 400.064C74.8722 220.524 220.425 75 399.872 75Z" fill="#8247E5"/>
<mask id="mask0_2014_108" style="mask-type:luminance" maskUnits="userSpaceOnUse" x="184" y="215" width="427" height="374">
<path d="M610.652 215.535H184.609V588.809H610.652V215.535Z" fill="white"/>
</mask>
<g mask="url(#mask0_2014_108)">
<path d="M506.409 329.217C498.607 324.742 488.63 324.742 479.805 329.217L417.645 366.046L375.437 389.447L314.427 426.148C306.625 430.624 296.649 430.624 287.824 426.148L240.116 397.12C232.314 392.644 226.814 383.693 226.814 373.719V317.964C226.814 309.013 231.291 300.189 240.116 294.563L287.824 266.685C295.626 262.21 305.602 262.21 314.427 266.685L362.135 295.713C369.937 300.189 375.437 309.141 375.437 319.115V355.944L417.645 331.391V293.54C417.645 284.588 413.168 275.765 404.343 270.138L315.579 217.708C307.776 213.233 297.8 213.233 288.975 217.708L198.036 271.289C189.211 275.765 184.734 284.716 184.734 293.54V398.271C184.734 407.222 189.211 416.046 198.036 421.673L287.952 474.102C295.754 478.578 305.73 478.578 314.555 474.102L375.565 438.424L417.773 413.872L478.782 378.194C486.584 373.719 496.56 373.719 505.386 378.194L553.093 406.071C560.895 410.547 566.395 419.499 566.395 429.473V485.228C566.395 494.179 561.918 503.002 553.093 508.629L506.537 536.506C498.735 540.982 488.758 540.982 479.933 536.506L432.098 508.629C424.296 504.153 418.796 495.202 418.796 485.228V449.55L376.588 474.102V510.931C376.588 519.882 381.065 528.706 389.89 534.332L479.805 586.762C487.607 591.238 497.584 591.238 506.409 586.762L596.324 534.332C604.126 529.857 609.626 520.905 609.626 510.931V405.048C609.626 396.097 605.15 387.274 596.324 381.647L506.409 329.217Z" fill="white"/>
</g>
</svg>
